<svg width="35" height="24" fill="none" xmlns="http://www.w3.org/2000/svg"><path d="M6.33 18.08c-.907 0-1.67-.155-2.289-.464a4.051 4.051 0 0 1-1.488-1.28 5.636 5.636 0 0 1-.816-1.84 8.675 8.675 0 0 1-.256-2.112V6.64h1.44v5.744a8.3 8.3 0 0 0 .16 1.632c.118.523.304.992.56 1.408.256.416.603.747 1.04.992.438.245.982.368 1.632.368.662 0 1.21-.123 1.648-.368a2.945 2.945 0 0 0 1.04-1.008c.256-.427.438-.901.544-1.424a7.283 7.283 0 0 0 .176-1.6V6.64h1.44v5.744c0 .768-.09 1.499-.272 2.192a5.112 5.112 0 0 1-.832 1.808 4.112 4.112 0 0 1-1.504 1.248c-.608.299-1.35.448-2.224.448ZM16.706 6.64h1.216L22.563 18h-1.536l-1.344-3.328h-4.768L13.587 18H12.05l4.656-11.36Zm2.656 6.912-2.048-5.248-2.112 5.248h4.16Z" fill="#F1F5F4"/><path fill-rule="evenodd" clip-rule="evenodd" d="M26.797 10.082a.278.278 0 0 0-.394 0l-.322.321a.278.278 0 0 0 0 .394l3.365 3.364a.28.28 0 0 0 .037.046l.322.322a.278.278 0 0 0 .393 0l3.72-3.72a.278.278 0 0 0 0-.394l-.321-.322a.278.278 0 0 0-.394 0l-3.197 3.197-3.21-3.208Z" fill="#F1F5F4"/></svg>